<?xml version="1.0" encoding="UTF-8" standalone="no"?>
<svg
   viewBox="0 0 32 32"
   id="profile"
   version="1.1"
   xmlns="http://www.w3.org/2000/svg"
   xmlns:svg="http://www.w3.org/2000/svg">
  <defs
     id="defs1" />
  <g
     id="g1">
    <circle
       cx="16"
       cy="6.96"
       r="6"
       id="circle1" />
    <path
       d="M30.86,26.84a15.07,15.07,0,0,0-4.11-7.47A12.47,12.47,0,0,0,25.13,18,15,15,0,0,0,16,15,15.24,15.24,0,0,0,5.24,19.37a15.07,15.07,0,0,0-4.11,7.47,3.42,3.42,0,0,0,.69,2.88A3.52,3.52,0,0,0,4.58,31H27.42a3.52,3.52,0,0,0,2.75-1.32A3.42,3.42,0,0,0,30.86,26.84Z"
       id="path1" />
  </g>
</svg>
